# xmcd
#
# Track frame offsets:
#	150
#	22091
#	46730
#	65883
#	92147
#	119095
#	135712
#	151568
#	171549
#	189798
#	204964
#
# Disc length: 3358 seconds
#
# Revision: 3
# Processed by: cddbd v1.5.2PL0 Copyright (c) Steve Scherf et al.
# Submitted via: EZCDAudioConverter 1.0.8.1
#
DISCID=960d1c0b
DTITLE=Ministry - The Last Sucker
DYEAR=2007
DGENRE=Industrial Metal
TTITLE0=Let's Go
TTITLE1=Watch Yourself
TTITLE2=Life Is Good
TTITLE3=The Dick Song
TTITLE4=The Last Sucker
TTITLE5=No Glory
TTITLE6=Death and Destruction
TTITLE7=Roadhouse Blues
TTITLE8=Die In A Crash
TTITLE9=End of Days (Part 1)
TTITLE10=End of Days (Part 2)
EXTD=
EXTT0=
EXTT1=
EXTT2=
EXTT3=
EXTT4=
EXTT5=
EXTT6=
EXTT7=
EXTT8=
EXTT9=
EXTT10=
PLAYORDER=
